<svg width="1325" height="238" viewBox="0 0 1325 238" fill="none" xmlns="http://www.w3.org/2000/svg">
<path opacity="0.03" d="M60.32 189.38C91.26 182.88 117.52 159.74 117.52 119.7V3.99999H93.34V119.96C93.34 160.52 78.52 178.72 60.06 185.48L60.32 189.38ZM39 185.74C21.58 179.5 8.06 161.3 1.93715e-07 131.92V188.08C13.52 188.08 27.3 187.56 38.74 188.34L39 185.74ZM205.388 3.99999L242.828 101.5H168.728V104.1H243.868L275.328 186H300.288L268.828 104.1H280.528V101.5H267.788L230.608 3.99999H205.388ZM160.668 136.34C152.348 160.78 138.048 180.02 121.408 186H185.888C159.628 179.76 156.248 157.92 163.788 136.34H160.668ZM412.279 185.48C409.159 185.74 406.299 186 402.919 186C348.579 186 337.139 132.7 337.139 94.48C337.139 58.6 347.279 9.71999 393.039 3.47999V0.359988C338.959 4.77999 309.319 45.6 309.319 94.48C309.319 146.22 342.599 188.86 402.919 188.86C406.559 188.86 410.199 188.6 413.839 188.34L441.399 238H465.059L441.919 196.14H421.379L416.959 188.08C468.439 181.84 496.519 142.06 496.519 94.48C496.519 45.6 466.879 4.77999 412.799 0.359988V3.47999C458.559 9.71999 468.699 58.6 468.699 94.48C468.699 129.58 459.079 177.42 415.139 184.96L409.679 175.08L407.079 176.12L412.279 185.48ZM583.69 184.96C562.11 181.06 542.87 163.38 542.87 117.36V3.99999H518.69V117.36C518.69 160.78 549.63 184.18 583.69 188.34V184.96ZM605.27 188.34C639.85 184.44 671.31 161.04 671.31 117.1V3.99999H647.13V117.36C647.13 164.42 627.37 181.32 605.01 185.22L605.27 188.34ZM770.888 6.86C794.808 6.86 807.028 40.92 811.968 59.12V3.99999H745.148V6.86H770.888ZM687.168 94.48V97.08H698.868V186H811.968V130.88C807.028 149.08 794.808 183.14 770.888 183.14H722.528V97.08H735.528C759.448 97.08 771.668 120.74 776.608 138.94V52.36C771.668 70.56 759.448 94.48 735.528 94.48H722.528V3.99999H698.868V94.48H687.168ZM863.023 186V4.25998H839.363V186H863.023ZM907.223 186H952.463V130.88C947.523 149.08 935.303 183.14 911.383 183.14H907.223V186ZM1004.3 3.99999H980.119V186H1004.3V3.99999ZM1063.93 3.73999H1039.75L1165.07 186H1181.45V5.56H1178.59V170.4L1063.93 3.73999ZM1051.71 136.34C1049.89 160.52 1041.31 180.02 1026.49 186H1090.97C1062.89 179.24 1054.31 158.18 1054.83 136.34H1051.71ZM1283.64 6.86C1307.56 6.86 1319.78 40.92 1324.72 59.12V3.99999H1257.9V6.86H1283.64ZM1199.92 94.48V97.08H1211.62V186H1324.72V130.88C1319.78 149.08 1307.56 183.14 1283.64 183.14H1235.28V97.08H1248.28C1272.2 97.08 1284.42 120.74 1289.36 138.94V52.36C1284.42 70.56 1272.2 94.48 1248.28 94.48H1235.28V3.99999H1211.62V94.48H1199.92Z" fill="black"/>
</svg>
