<svg width="1440" height="299" viewBox="0 0 1440 299" fill="none" xmlns="http://www.w3.org/2000/svg">
<path opacity="0.03" d="M-89.02 0.99998H-127.24L5.48001 205.96L16.82 187.06L116.78 32.92V295H155.84V0.99998H132.32L21.44 172.36L-89.02 0.99998ZM-110.86 214.78C-113.8 253.84 -127.66 285.34 -151.6 295H-47.44C-92.8 284.08 -106.66 250.06 -105.82 214.78H-110.86ZM318.698 0.99998L379.178 158.5H259.478V162.7H380.858L431.678 295H471.998L421.178 162.7H440.078V158.5H419.498L359.438 0.99998H318.698ZM246.458 214.78C233.018 254.26 209.918 285.34 183.038 295H287.198C244.778 284.92 239.318 249.64 251.498 214.78H246.458ZM664.197 66.94L669.657 61.48C694.857 36.28 726.778 11.08 761.638 0.579985H651.177C665.037 6.03999 675.537 14.44 675.537 30.4C675.537 42.58 669.657 55.6 660.837 64L664.197 66.94ZM481.077 0.99998H431.937L562.557 158.92V293.74H602.037V147.16L481.077 0.99998ZM889.606 293.32C854.746 287.02 823.666 258.46 823.666 184.12V0.99998H784.606V184.12C784.606 254.26 834.586 292.06 889.606 298.78V293.32ZM924.466 298.78C980.326 292.48 1031.15 254.68 1031.15 183.7V0.99998H992.086V184.12C992.086 260.14 960.166 287.44 924.046 293.74L924.466 298.78ZM1112.51 0.99998H1074.29L1207.01 205.96L1218.35 187.06L1318.31 32.92V295H1357.37V0.99998H1333.85L1222.97 172.36L1112.51 0.99998ZM1090.67 214.78C1087.73 253.84 1073.87 285.34 1049.93 295H1154.09C1108.73 284.08 1094.87 250.06 1095.71 214.78H1090.67ZM1444.63 0.99998H1405.57V295H1444.63V0.99998Z" fill="black"/>
</svg>
