<svg width="56" height="56" viewBox="0 0 56 56" fill="none" xmlns="http://www.w3.org/2000/svg">
<g clip-path="url(#clip0_135:10)">
<path d="M42.4099 26.0422C41.8686 26.0422 41.35 26.1374 40.8683 26.3116C40.2804 24.4803 38.562 23.1506 36.5378 23.1506C35.9789 23.1506 35.443 23.2525 34.9479 23.4384C34.318 21.6815 32.6366 20.4214 30.6661 20.4214C30.2054 20.4214 29.761 20.4906 29.3414 20.6186V19.6325C29.3414 19.0111 29.2159 18.4186 28.9893 17.8785C29.6376 17.6037 30.2322 17.2017 30.7421 16.6843C31.755 15.6554 32.3009 14.3004 32.2791 12.8679C32.2766 12.6954 32.2653 12.525 32.2464 12.361C31.9955 10.2255 30.7144 8.74556 29.5835 7.44013L29.466 7.30418C28.7867 6.51823 28.354 5.83678 28.1048 5.15952C27.9042 4.61401 27.8773 3.99969 27.8463 3.28844C27.8341 3.01276 27.8215 2.72784 27.7985 2.43033L27.6818 0.944885H25.5296L25.1389 1.18742C22.8743 2.59356 21.4274 4.74284 20.9553 7.40279C20.8953 7.741 20.8551 8.06662 20.829 8.37462L18.6269 7.58826L18.1267 9.18909C17.1431 12.3371 18.0126 14.5963 18.9148 15.9374C19.3864 16.6377 20.0095 17.2029 20.725 17.607C20.4199 18.2171 20.247 18.9049 20.247 19.6325V35.0228L18.6626 32.6713L18.6202 32.618C16.8846 30.4607 13.8315 29.9811 11.5186 31.5031C10.3093 32.2986 9.48974 33.5193 9.21111 34.9401C8.93501 36.35 9.22664 37.7788 10.0323 38.9672L17.7952 51.2032L17.8275 51.2523C19.8455 54.1905 23.1789 55.9449 26.744 55.9449H35.4565C41.7981 55.9449 46.9569 50.7857 46.9569 44.4445V30.5891C46.9573 28.0819 44.9171 26.0422 42.4099 26.0422ZM24.6711 13.1687L24.0945 10.3636C24.0882 10.3321 23.6224 7.9378 24.9321 5.81412C24.9749 5.9656 25.024 6.11876 25.0806 6.27276C25.4629 7.31131 26.0998 8.33811 27.028 9.41149L27.1472 9.54955C28.0934 10.6422 28.9104 11.5859 29.0456 12.7365C29.0519 12.7923 29.056 12.8532 29.0569 12.917C29.0653 13.4793 28.8483 14.0138 28.4459 14.423C28.025 14.8501 27.4623 15.0855 26.8619 15.0855H23.3946C22.6632 15.0855 21.988 14.7314 21.5885 14.1376C21.1307 13.4579 20.9067 12.6849 20.9172 11.8281L24.6711 13.1687ZM43.7347 44.4445C43.7347 49.009 40.0211 52.7222 35.4569 52.7222H26.744C24.2506 52.7222 21.9184 51.4999 20.5001 49.4505L12.7069 37.1687C12.3817 36.695 12.2634 36.1235 12.3738 35.5595C12.4845 34.9955 12.8097 34.5113 13.2898 34.1953C14.1915 33.602 15.3765 33.7749 16.0714 34.5923L20.0528 40.5022C20.5147 41.1882 21.3565 41.4866 22.1475 41.2449C22.9385 41.0032 23.4701 40.2856 23.4701 39.4586V19.6325C23.4701 18.9024 24.0643 18.3082 24.7944 18.3082C25.525 18.3082 26.1192 18.902 26.1192 19.6325V31.2475H29.3418V24.9684C29.3418 24.2382 29.936 23.6441 30.6665 23.6441C31.3971 23.6441 31.9913 24.2382 31.9913 24.9684V31.2475H35.2139V27.698C35.2139 26.9678 35.8081 26.3737 36.5382 26.3737C37.2688 26.3737 37.863 26.9674 37.863 27.698V31.2475H41.0856V30.5891C41.0856 29.859 41.6798 29.2648 42.4104 29.2648C43.1405 29.2648 43.7351 29.8586 43.7351 30.5891V44.4445H43.7347Z" fill="#5C374C"/>
</g>
<defs>
<clipPath id="clip0_135:10">
<rect width="55" height="55" fill="white" transform="translate(0.515808 0.944885)"/>
</clipPath>
</defs>
</svg>
