<svg width="55" height="59" viewBox="0 0 55 59" fill="none" xmlns="http://www.w3.org/2000/svg">
<g clip-path="url(#clip0_135:17)">
<path d="M29.2997 12.7502C29.9289 13.4173 30.9491 13.4174 31.5784 12.7502C32.2077 12.0831 32.2077 11.0017 31.5784 10.3346L27.0208 5.50329C26.3917 4.83622 25.3714 4.83622 24.7421 5.50329C24.1128 6.17036 24.1128 7.25182 24.7421 7.91889L29.2997 12.7502Z" fill="#5C374C"/>
<path d="M42.9723 24.8282C42.343 25.4953 42.343 26.5768 42.9723 27.2438L47.5298 32.075C48.159 32.7421 49.1793 32.7422 49.8086 32.075C50.4378 31.408 50.4378 30.3265 49.8086 29.6594L45.2511 24.8282C44.6219 24.1612 43.6016 24.1612 42.9723 24.8282Z" fill="#5C374C"/>
<path d="M49.8086 5.50329C49.1794 4.83622 48.1591 4.83622 47.5298 5.50329L42.9723 10.3345C42.343 11.0016 42.343 12.083 42.9723 12.7501C43.6015 13.4172 44.6218 13.4173 45.2511 12.7501L49.8086 7.91889C50.4378 7.25182 50.4378 6.17036 49.8086 5.50329Z" fill="#5C374C"/>
<path d="M35.6641 32.4541V35.8703C35.6641 36.8136 36.3855 37.5784 37.2754 37.5784C38.1653 37.5784 38.8867 36.8136 38.8867 35.8703V32.4541C38.8867 31.5107 38.1653 30.746 37.2754 30.746C36.3855 30.746 35.6641 31.5107 35.6641 32.4541Z" fill="#5C374C"/>
<path d="M38.8867 5.12528V1.70908C38.8867 0.765751 38.1653 0.000976562 37.2754 0.000976562C36.3855 0.000976562 35.6641 0.765751 35.6641 1.70908V5.12528C35.6641 6.06861 36.3855 6.83338 37.2754 6.83338C38.1653 6.83338 38.8867 6.06861 38.8867 5.12528Z" fill="#5C374C"/>
<path d="M53.3887 17.0812H50.166C49.2761 17.0812 48.5547 17.846 48.5547 18.7893C48.5547 19.7326 49.2761 20.4974 50.166 20.4974H53.3887C54.2786 20.4974 55 19.7326 55 18.7893C55 17.846 54.2786 17.0812 53.3887 17.0812Z" fill="#5C374C"/>
<path d="M19.5508 18.7893C19.5508 19.7326 20.2722 20.4974 21.1621 20.4974H24.3848C25.2746 20.4974 25.9961 19.7326 25.9961 18.7893C25.9961 17.846 25.2746 17.0812 24.3848 17.0812H21.1621C20.2722 17.0812 19.5508 17.846 19.5508 18.7893Z" fill="#5C374C"/>
<path d="M0.47223 52.9716L5.02971 57.8029C5.65867 58.4696 6.67928 58.4698 7.30845 57.8029L36.1358 27.2443C36.136 27.2442 36.1361 27.2439 36.1363 27.2438C36.1365 27.2437 36.1366 27.2435 36.1368 27.2432L42.9726 19.9969C43.6019 19.3299 43.6019 18.2484 42.9726 17.5813L38.4151 12.75C38.113 12.4297 37.7032 12.2496 37.2757 12.2496C36.8484 12.2496 36.4386 12.4296 36.1364 12.75L0.472338 50.556C-0.15694 51.2231 -0.15694 52.3045 0.47223 52.9716ZM37.2757 16.3734L39.5545 18.7892L34.9969 23.6204L32.7181 21.2048L37.2757 16.3734ZM30.4394 23.6204L32.7181 26.036L6.16914 54.1794L3.89039 51.7637L30.4394 23.6204Z" fill="#5C374C"/>
</g>
<defs>
<clipPath id="clip0_135:17">
<rect width="55" height="58.3032" fill="white"/>
</clipPath>
</defs>
</svg>
