<svg width="55" height="55" viewBox="0 0 55 55" fill="none" xmlns="http://www.w3.org/2000/svg">
<g clip-path="url(#clip0_135:31)">
<path d="M53.7902 35.8919C52.2091 32.4028 49.2785 29.935 45.538 28.9422C40.634 27.6406 34.8256 28.7312 30.1142 31.6043C28.04 30.238 25.5991 29.4991 23.0889 29.4991C20.8734 29.4991 18.7073 30.0764 16.8018 31.1532C16.6554 25.4246 17.9411 16.6978 18.5214 13.0937L25.6822 14.6169L32.323 11.85C33.3482 11.4228 34.0909 10.5601 34.3603 9.4825C34.6301 8.40492 34.3813 7.2942 33.678 6.43482L28.413 0H11.8932L8.12542 9.78001C2.48284 20.9775 0.146829 38.1675 0.000383083 46.3911C-0.0399001 48.6667 0.816118 50.8143 2.4115 52.4382C4.00772 54.063 6.14147 54.958 8.41957 54.958H21.7646C23.7574 54.958 25.7216 54.491 27.4903 53.6039C28.0383 53.69 28.6069 53.7835 29.2007 53.8809C32.3113 54.3907 36.027 55 39.6176 55C40.5345 55 41.4438 54.9601 42.3317 54.8691C47.6886 54.3185 51.4382 51.9553 53.4763 47.8451C55.3793 44.0073 55.4938 39.6504 53.7902 35.8919ZM50.5889 46.4134C49.0322 49.553 46.3038 51.2214 42.0023 51.6632C38.5124 52.0216 34.6368 51.4924 31.0801 50.9213C31.6961 50.265 32.2446 49.5446 32.7112 48.7704C33.4178 47.5984 33.9281 46.3286 34.2273 44.9959L31.0831 44.2893C30.8594 45.2838 30.4788 46.2317 29.9514 47.107C28.2041 50.0049 25.1438 51.7354 21.7646 51.7354H8.41957C7.01302 51.7354 5.69584 51.1827 4.71058 50.1799C3.72616 49.1778 3.19786 47.8527 3.22262 46.4486C3.36445 38.4927 5.61108 21.878 11.0376 11.1626L11.0745 11.0896L14.1054 3.22266H26.8861L31.1838 8.47542C31.2379 8.54172 31.2547 8.61725 31.2341 8.70033C31.2131 8.78342 31.1628 8.84216 31.0835 8.87531L25.37 11.2558L15.9148 9.24374L15.6227 10.8844C15.5031 11.5575 12.7034 27.4475 13.8486 34.4069L14.3265 37.3106L16.9093 34.9902C18.6318 33.5274 20.8255 32.7217 23.0889 32.7217C24.5475 32.7217 25.9742 33.0566 27.2654 33.6839C26.8462 34.049 26.44 34.4283 26.054 34.8261L28.366 37.071C32.5492 32.7624 39.4234 30.653 44.7114 32.057C47.4989 32.7968 49.6809 34.631 50.855 37.2217C52.1382 40.0537 52.0387 43.4895 50.5889 46.4134Z" fill="#5C374C"/>
</g>
<defs>
<clipPath id="clip0_135:31">
<rect width="55" height="55" fill="white"/>
</clipPath>
</defs>
</svg>
