<svg width="44" height="44" viewBox="0 0 44 44" fill="none" xmlns="http://www.w3.org/2000/svg">
<g clip-path="url(#clip0)">
<path d="M22.6655 27.4028C22.6655 24.0148 21.054 21.5105 17.7247 20.5718C20.1538 19.415 21.4207 17.6623 21.4207 14.9362C21.4207 9.56083 17.402 8.25 12.7655 8.25H0V35.2385H13.123C18.0437 35.2385 22.6655 32.8863 22.6655 27.4028ZM5.951 12.8572H11.5353C13.6822 12.8572 15.6145 13.4585 15.6145 15.9408C15.6145 18.2325 14.1112 19.1547 11.9845 19.1547H5.951V12.8572ZM5.94917 30.6552V23.2228H12.4355C15.0553 23.2228 16.7127 24.3118 16.7127 27.0765C16.7127 29.8027 14.7345 30.6552 12.3127 30.6552H5.94917Z" fill="#5C374C"/>
<path d="M34.4593 35.75C39.1417 35.75 42.174 33.6471 43.6333 29.1775H38.8813C38.3698 30.8458 36.2615 31.7276 34.6262 31.7276C31.471 31.7276 29.8137 29.8851 29.8137 26.7538H43.9542C44.4015 20.4875 40.9108 15.147 34.4575 15.147C28.4827 15.147 24.4273 19.624 24.4273 25.4888C24.4273 31.5755 28.27 35.75 34.4593 35.75ZM34.2907 19.2023C36.9948 19.2023 38.3552 20.7863 38.5825 23.3768H29.821C29.9988 20.8083 31.7093 19.2023 34.2907 19.2023Z" fill="#5C374C"/>
<path d="M28.7228 9.66699H39.7008V12.3253H28.7228V9.66699Z" fill="#5C374C"/>
</g>
<defs>
<clipPath id="clip0">
<rect width="44" height="44" fill="white"/>
</clipPath>
</defs>
</svg>
