<?xml version="1.0" encoding="utf-8"?>
<!-- Generator: Adobe Illustrator 25.4.1, SVG Export Plug-In . SVG Version: 6.00 Build 0)  -->
<svg version="1.1" id="Layer_1" xmlns="http://www.w3.org/2000/svg" xmlns:xlink="http://www.w3.org/1999/xlink" x="0px" y="0px"
	 viewBox="0 0 360.89 227.75" style="enable-background:new 0 0 360.89 227.75;" xml:space="preserve">
<style type="text/css">
	.st0{fill:#E85A50;}
</style>
<path class="st0" d="M0,158.26c0,0,14.58,58.67,48.25,66.59v2.9l-48.25,0V158.26z"/>
<path class="st0" d="M74.82,227.75v-3.22c0,0,6.8-1.27,18.1-10.67c11.3-9.4,17-26.9,17-26.9s2.5-4.1,4.2-13.1
	c1.7-9,1.8-16.2,1.8-16.2L115.48,0l30.77,0v149.87c0,0-0.24,5.42-1.38,10.76c-1.14,5.33-3.71,16.95-10.1,28
	c-6.38,11.05-14.14,17.95-14.14,17.95s-7.86,7.38-16.52,12.05c-8.67,4.67-17.14,6.95-18.57,7.81
	C84.11,227.29,74.82,227.75,74.82,227.75z"/>
<polygon class="st0" points="145.25,2.19 244.77,155.66 246.92,155.66 330.03,25.03 330.84,25.03 330.97,225.17 360.89,225.17 
	360.89,0 340.1,0 257.48,130.77 173.36,0 145.25,0 "/>
<g>
</g>
<g>
</g>
<g>
</g>
<g>
</g>
<g>
</g>
</svg>
