<svg width="110" height="70" viewBox="0 0 110 70" fill="none" xmlns="http://www.w3.org/2000/svg">
<path d="M0 48.6419C0 48.6419 4.44401 66.6744 14.7067 69.1086V70H0V48.6419Z" fill="#E85A50"/>
<path d="M22.8053 70V69.0103C22.8053 69.0103 24.8779 68.62 28.3222 65.7308C31.7664 62.8417 33.5038 57.463 33.5038 57.463C33.5038 57.463 34.2658 56.2029 34.784 53.4367C35.3022 50.6705 35.3326 48.4575 35.3326 48.4575L35.1985 0H44.5773V46.0632C44.5773 46.0632 44.5041 47.7291 44.1567 49.3704C43.8092 51.0086 43.0258 54.58 41.0782 57.9763C39.1335 61.3726 36.7683 63.4933 36.7683 63.4933C36.7683 63.4933 34.3725 65.7616 31.7329 67.1969C29.0903 68.6323 26.5086 69.333 26.0727 69.5974C25.6369 69.8586 22.8053 70 22.8053 70Z" fill="#E85A50"/>
<path d="M44.2725 0.673106L74.6064 47.8428H75.2617L100.594 7.69308H100.841L100.88 69.207H110V0H103.663L78.4804 40.1928L52.8405 0H44.2725V0.673106Z" fill="#E85A50"/>
</svg>
